<?xml version="1.0" encoding="UTF-8" standalone="no"?>
<svg
   xmlns:dc="http://purl.org/dc/elements/1.1/"
   xmlns:cc="http://creativecommons.org/ns#"
   xmlns:rdf="http://www.w3.org/1999/02/22-rdf-syntax-ns#"
   xmlns:svg="http://www.w3.org/2000/svg"
   xmlns="http://www.w3.org/2000/svg"
   xmlns:sodipodi="http://sodipodi.sourceforge.net/DTD/sodipodi-0.dtd"
   xmlns:inkscape="http://www.inkscape.org/namespaces/inkscape"
   width="40px"
   height="40px"
   viewBox="0 0 40 40"
   version="1.1"
   id="svg12"
   sodipodi:docname="diagonal-stripes.svg"
   inkscape:version="0.92.4 (5da689c313, 2019-01-14)">
  <metadata
     id="metadata16">
    <rdf:RDF>
      <cc:Work
         rdf:about="">
        <dc:format>image/svg+xml</dc:format>
        <dc:type
           rdf:resource="http://purl.org/dc/dcmitype/StillImage" />
      </cc:Work>
    </rdf:RDF>
  </metadata>
  <sodipodi:namedview
     pagecolor="#ffffff"
     bordercolor="#666666"
     borderopacity="1"
     objecttolerance="10"
     gridtolerance="10"
     guidetolerance="10"
     inkscape:pageopacity="0"
     inkscape:pageshadow="2"
     inkscape:window-width="1920"
     inkscape:window-height="1017"
     id="namedview14"
     showgrid="false"
     inkscape:zoom="5.6568543"
     inkscape:cx="83.408887"
     inkscape:cy="-11.050311"
     inkscape:window-x="-8"
     inkscape:window-y="-8"
     inkscape:window-maximized="1"
     inkscape:current-layer="svg12"
     inkscape:lockguides="true" />
  <!-- Generator: Sketch 40.1 (33804) - http://www.bohemiancoding.com/sketch -->
  <title
     id="title2">diagonal-stripes</title>
  <desc
     id="desc4">Created with Sketch.</desc>
  <defs
     id="defs6" />
  <g
     id="Page-1"
     stroke-width="1"
     stroke="none"
     fill-rule="evenodd"
     fill="none">
    <g
       id="diagonal-stripes"
       fill="#000000">
      <polygon
         id="Path-2"
         points="0 40 40 0 20 0 0 20" />
      <polygon
         id="Path-2-Copy"
         points="40 40 40 20 20 40" />
    </g>
    <path
       style="fill:#4d4d4d;stroke-width:0.0625"
       d="M 0.03353726,29.970345 V 20.032809 L 10.049428,10.017064 20.065319,0.00131884 29.986967,0.01713702 39.908614,0.0329552 19.971076,19.970418 0.03353726,39.907881 Z"
       id="path32"
       inkscape:connector-curvature="0" />
    <path
       style="fill:#4d4d4d;stroke-width:0.0625"
       d="m 30.002287,30.064205 c 5.465544,-5.465625 9.944417,-9.9375 9.953051,-9.9375 0.0086,0 0.0157,4.471875 0.0157,9.9375 v 9.9375 h -9.953051 -9.953051 z"
       id="path34"
       inkscape:connector-curvature="0" />
  </g>
  <g
     inkscape:groupmode="layer"
     id="layer1"
     inkscape:label="Layer 1" />
  <g
     inkscape:groupmode="layer"
     id="layer2"
     inkscape:label="Layer 2">
    <path
       style="fill:#cccccc;stroke-width:0.06901959"
       d="M 0.00457269,9.9818338 C -0.01355006,4.4537973 -0.02537007,-0.07114351 -0.02169398,-0.07358998 -0.0180176,-0.07603593 4.4883669,-0.06047957 9.9924944,-0.03901905 L 20,0 10.018762,10.016405 0.03752313,20.032809 Z"
       id="path40"
       inkscape:connector-curvature="0" />
    <path
       style="opacity:1;fill:#cccccc;stroke-width:0.09276851"
       d="M 20.016768,20.000001 40,0 40.00246,9.6746306 40,20 30.235055,29.829311 20,40 H 10.309643 0 Z"
       id="path4565"
       inkscape:connector-curvature="0"
       sodipodi:nodetypes="ccccccccc" />
  </g>
  <path
     style="opacity:1;fill:#666666;stroke-width:0.17677669"
     d="M 0.14706366,29.853903 V 19.954117 L 10.092838,10.009511 20.038612,0.06490558 29.892161,0.1106032 39.745712,0.15630084 19.946388,19.954995 0.14706366,39.753688 Z"
     id="path4567"
     inkscape:connector-curvature="0" />
  <path
     style="opacity:1;fill:#666666;stroke-width:0.17677669"
     d="m 28.345773,31.707022 c 4.568123,-4.571833 9.041511,-8.994566 9.940863,-9.828294 l 1.635184,-1.515871 v 9.828294 9.828295 h -9.940862 -9.940862 z"
     id="path4569"
     inkscape:connector-curvature="0" />
</svg>
